<svg
    xmlns="http://www.w3.org/2000/svg"
    viewBox="0 0 1080 1080"
    id="vector">
    <path
        id="path"
        d="M 506.5 -0.5 L 571.5 -0.5 C 742.2 13.6 878.3 88.9 980 225.5 C 1039.1 309.9 1072.2 403.5 1079.5 506.5 L 1079.5 572.5 C 1066.5 733.1 997.8 863.9 873.5 965 C 784.6 1033.6 683.9 1071.8 571.5 1079.5 L 507.5 1079.5 C 336.8 1065.4 200.7 990.1 99 853.5 C 39.9 769.1 6.8 675.5 -0.5 572.5 L -0.5 506.5 C 13.9 336.2 89.2 200.4 225.5 99 C 309.9 39.9 403.5 6.8 506.5 -0.5 Z"
        fill="#f2f2f2"/>
    <path
        id="path_1"
        d="M 424.5 186.5 L 424.5 534.5 L 275.5 534.5 L 275.5 186.5 L 424.5 186.5 Z"
        fill="#e91e63"/>
    <path
        id="path_2"
        d="M 425.5 186.5 C 475.2 186.3 524.8 186.5 574.5 187 C 632.1 188.9 686.7 202.2 738.5 227 C 747.9 232 756.9 237.5 765.5 243.5 C 732.2 273.8 698.8 304.2 665.5 334.5 C 630.6 313.2 592.6 302.4 551.5 302 C 518.5 301.3 485.5 301.3 452.5 302 C 437.9 305.8 428.9 315 425.5 329.5 L 425.5 186.5 Z"
        fill="#009688"/>
    <path
        id="path_3"
        d="M 765.5 243.5 C 823.1 280.8 863.8 331.8 887.5 396.5 C 889.7 406.2 892.7 415.5 896.5 424.5 C 900.2 435.2 902.8 446.2 904.5 457.5 C 905.9 471.3 907.6 485 909.5 498.5 C 911.3 510.4 911.9 522.4 911.5 534.5 L 758.5 534.5 C 758.1 523.3 757.5 512.3 756.5 501.5 C 752.7 444.9 731 396.4 691.5 356 C 682.9 348.6 674.3 341.4 665.5 334.5 C 698.8 304.2 732.2 273.8 765.5 243.5 Z"
        fill="#279ad5"/>
    <path
        id="path_4"
        d="M 665.5 334.5 C 674.3 341.4 682.9 348.6 691.5 356 C 731 396.4 752.7 444.9 756.5 501.5 C 756.4 512.5 756.8 523.5 757.5 534.5 C 757.8 543.9 757.5 553.3 756.5 562.5 C 755.2 568.3 754.5 574.3 754.5 580.5 C 753.2 589.9 751.2 599.2 748.5 608.5 C 746.5 613.6 744.8 619 743.5 624.5 C 712.6 713.8 650 761.3 555.5 767 C 521.2 767.7 486.8 767.7 452.5 767 C 438.7 763.2 429.8 754.4 426 740.5 C 425.5 603.5 425.3 466.5 425.5 329.5 C 428.9 315 437.9 305.8 452.5 302 C 485.5 301.3 518.5 301.3 551.5 302 C 592.6 302.4 630.6 313.2 665.5 334.5 Z"
        fill="#f2f2f2"/>
    <path
        id="path_5"
        d="M 887.5 396.5 C 891.3 405.5 894.3 414.8 896.5 424.5 C 892.7 415.5 889.7 406.2 887.5 396.5 Z"
        fill="#279ad5"/>
    <path
        id="path_6"
        d="M 904.5 457.5 C 907.5 470.9 909.2 484.5 909.5 498.5 C 907.6 485 905.9 471.3 904.5 457.5 Z"
        fill="#279ad5"/>
    <path
        id="path_7"
        d="M 756.5 501.5 C 757.5 512.3 758.1 523.3 758.5 534.5 L 757.5 534.5 C 756.8 523.5 756.4 512.5 756.5 501.5 Z"
        fill="#279ad5"/>
    <path
        id="path_8"
        d="M 424.5 186.5 L 425.5 186.5 L 425.5 329.5 C 425.3 466.5 425.5 603.5 426 740.5 C 429.8 754.4 438.7 763.2 452.5 767 C 486.8 767.7 521.2 767.7 555.5 767 C 650 761.3 712.6 713.8 743.5 624.5 C 746.3 619.6 748 614.3 748.5 608.5 C 751.2 599.2 753.2 589.9 754.5 580.5 C 756.1 574.7 756.7 568.7 756.5 562.5 C 757.5 553.3 757.8 543.9 757.5 534.5 L 911.5 534.5 C 911.6 584.8 902.7 633.5 885 680.5 C 843.2 775.3 772.3 837.2 672.5 866 C 640.1 874.8 607.1 880.2 573.5 882 C 474.2 882.5 374.8 882.7 275.5 882.5 L 275.5 534.5 L 424.5 534.5 L 424.5 186.5 Z"
        fill="#ff9800"/>
    <path
        id="path_9"
        d="M 756.5 562.5 C 756.7 568.7 756.1 574.7 754.5 580.5 C 754.5 574.3 755.2 568.3 756.5 562.5 Z"
        fill="#ff9800"/>
    <path
        id="path_10"
        d="M 748.5 608.5 C 748 614.3 746.3 619.6 743.5 624.5 C 744.8 619 746.5 613.6 748.5 608.5 Z"
        fill="#ff9800"/>
</svg>
